{
	"asset":{
		"generator":"Khronos glTF Blender I/O v3.6.27",
		"version":"2.0"
	},
	"extensionsUsed":[
		"KHR_materials_specular",
		"KHR_materials_ior"
	],
	"scene":0,
	"scenes":[
		{
			"name":"Scene",
			"nodes":[
				0
			]
		}
	],
	"nodes":[
		{
			"mesh":0,
			"name":"Suzanne"
		}
	],
	"materials":[
		{
			"doubleSided":true,
			"extensions":{
				"KHR_materials_specular":{
					"specularColorFactor":[
						2.371357614441398,
						2.371357614441398,
						2.371357614441398
					]
				},
				"KHR_materials_ior":{
					"ior":1.4500000476837158
				}
			},
			"name":"faucetPBR",
			"normalTexture":{
				"index":0
			},
			"pbrMetallicRoughness":{
				"baseColorTexture":{
					"index":1
				},
				"metallicRoughnessTexture":{
					"index":2
				}
			}
		}
	],
	"meshes":[
		{
			"name":"Suzanne",
			"primitives":[
				{
					"attributes":{
						"POSITION":0,
						"NORMAL":1,
						"TEXCOORD_0":2
					},
					"indices":3,
					"material":0
				}
			]
		}
	],
	"textures":[
		{
			"sampler":0,
			"source":0
		},
		{
			"sampler":0,
			"source":1
		},
		{
			"sampler":0,
			"source":2
		}
	],
	"images":[
		{
			"mimeType":"image/png",
			"name":"SN_normal",
			"uri":"tex/SN_normal.png"
		},
		{
			"mimeType":"image/png",
			"name":"SN_basecolor",
			"uri":"tex/SN_basecolor.png"
		},
		{
			"mimeType":"image/png",
			"name":"SN_metallic.png-SN_roughness.png",
			"uri":"tex/SN_metallic_png-SN_roughness_png.png"
		}
	],
	"accessors":[
		{
			"bufferView":0,
			"componentType":5126,
			"count":2602,
			"max":[
				0.42593491077423096,
				0.3017142415046692,
				0.26415684819221497
			],
			"min":[
				-0.42593491077423096,
				-0.3117527663707733,
				-0.2500052750110626
			],
			"type":"VEC3"
		},
		{
			"bufferView":1,
			"componentType":5126,
			"count":2602,
			"type":"VEC3"
		},
		{
			"bufferView":2,
			"componentType":5126,
			"count":2602,
			"type":"VEC2"
		},
		{
			"bufferView":3,
			"componentType":5123,
			"count":11808,
			"type":"SCALAR"
		}
	],
	"bufferViews":[
		{
			"buffer":0,
			"byteLength":31224,
			"byteOffset":0,
			"target":34962
		},
		{
			"buffer":0,
			"byteLength":31224,
			"byteOffset":31224,
			"target":34962
		},
		{
			"buffer":0,
			"byteLength":20816,
			"byteOffset":62448,
			"target":34962
		},
		{
			"buffer":0,
			"byteLength":23616,
			"byteOffset":83264,
			"target":34963
		}
	],
	"samplers":[
		{
			"magFilter":9729,
			"minFilter":9987
		}
	],
	"buffers":[
		{
			"byteLength":106880,
			"uri":"ape-smooth.bin"
		}
	]
}
