{
	"asset":{
		"generator":"Khronos glTF Blender I/O v3.6.27",
		"version":"2.0"
	},
	"extensionsUsed":[
		"KHR_materials_specular",
		"KHR_materials_ior"
	],
	"scene":0,
	"scenes":[
		{
			"name":"Scene",
			"nodes":[
				8
			]
		}
	],
	"nodes":[
		{
			"mesh":0,
			"name":"base_001_mesh",
			"translation":[
				0,
				0,
				-0.4198875427246094
			]
		},
		{
			"mesh":1,
			"name":"base_002_mesh",
			"translation":[
				-8.0905122756958,
				0,
				0
			]
		},
		{
			"mesh":2,
			"name":"base_003_mesh",
			"translation":[
				8.090507507324219,
				0,
				0
			]
		},
		{
			"mesh":3,
			"name":"body_mesh"
		},
		{
			"mesh":4,
			"name":"neck_mesh",
			"translation":[
				3.7567208437394584e-06,
				8.634932518005371,
				-14.444153785705566
			]
		},
		{
			"children":[
				3,
				4
			],
			"name":"body_grp",
			"translation":[
				0,
				0,
				-0.4198875427246094
			]
		},
		{
			"mesh":5,
			"name":"faucet_001_mesh",
			"translation":[
				-8.090498924255371,
				0,
				-5.335488319396973
			]
		},
		{
			"mesh":6,
			"name":"faucet_002_mesh",
			"translation":[
				8.090500831604004,
				0,
				-5.335488319396973
			]
		},
		{
			"children":[
				0,
				1,
				2,
				5,
				6,
				7
			],
			"name":"faucet_root",
			"rotation":[
				0.7071068286895752,
				0,
				0,
				0.7071068286895752
			],
			"scale":[
				0.009999999776482582,
				0.009999999776482582,
				0.009999999776482582
			]
		}
	],
	"materials":[
		{
			"doubleSided":true,
			"extensions":{
				"KHR_materials_specular":{
					"specularColorFactor":[
						2.371357614441398,
						2.371357614441398,
						2.371357614441398
					]
				},
				"KHR_materials_ior":{
					"ior":1.4500000476837158
				}
			},
			"name":"faucetPBR",
			"normalTexture":{
				"index":0
			},
			"pbrMetallicRoughness":{
				"baseColorTexture":{
					"index":1
				},
				"metallicRoughnessTexture":{
					"index":2
				}
			}
		}
	],
	"meshes":[
		{
			"name":"Mesh.002",
			"primitives":[
				{
					"attributes":{
						"POSITION":0,
						"NORMAL":1,
						"TEXCOORD_0":2
					},
					"indices":3,
					"material":0
				}
			]
		},
		{
			"name":"Mesh",
			"primitives":[
				{
					"attributes":{
						"POSITION":4,
						"NORMAL":5,
						"TEXCOORD_0":6
					},
					"indices":7,
					"material":0
				}
			]
		},
		{
			"name":"Mesh.003",
			"primitives":[
				{
					"attributes":{
						"POSITION":8,
						"NORMAL":9,
						"TEXCOORD_0":10
					},
					"indices":11,
					"material":0
				}
			]
		},
		{
			"name":"Mesh.006",
			"primitives":[
				{
					"attributes":{
						"POSITION":12,
						"NORMAL":13,
						"TEXCOORD_0":14
					},
					"indices":15,
					"material":0
				}
			]
		},
		{
			"name":"Mesh.005",
			"primitives":[
				{
					"attributes":{
						"POSITION":16,
						"NORMAL":17,
						"TEXCOORD_0":18
					},
					"indices":19,
					"material":0
				}
			]
		},
		{
			"name":"Mesh.001",
			"primitives":[
				{
					"attributes":{
						"POSITION":20,
						"NORMAL":21,
						"TEXCOORD_0":22
					},
					"indices":23,
					"material":0
				}
			]
		},
		{
			"name":"Mesh.004",
			"primitives":[
				{
					"attributes":{
						"POSITION":24,
						"NORMAL":25,
						"TEXCOORD_0":26
					},
					"indices":27,
					"material":0
				}
			]
		}
	],
	"textures":[
		{
			"sampler":0,
			"source":0
		},
		{
			"sampler":0,
			"source":1
		},
		{
			"sampler":0,
			"source":2
		}
	],
	"images":[
		{
			"mimeType":"image/png",
			"name":"SN_normal",
			"uri":"tex/SN_normal.png"
		},
		{
			"mimeType":"image/png",
			"name":"SN_basecolor",
			"uri":"tex/SN_basecolor.png"
		},
		{
			"mimeType":"image/png",
			"name":"SN_metallic.png-SN_roughness.png",
			"uri":"tex/SN_metallic_png-SN_roughness_png.png"
		}
	],
	"accessors":[
		{
			"bufferView":0,
			"componentType":5126,
			"count":916,
			"max":[
				2.0797183513641357,
				2.079718589782715,
				0.41988781094551086
			],
			"min":[
				-2.079718828201294,
				-2.079718589782715,
				-7.5409722328186035
			],
			"type":"VEC3"
		},
		{
			"bufferView":1,
			"componentType":5126,
			"count":916,
			"type":"VEC3"
		},
		{
			"bufferView":2,
			"componentType":5126,
			"count":916,
			"type":"VEC2"
		},
		{
			"bufferView":3,
			"componentType":5123,
			"count":4596,
			"type":"SCALAR"
		},
		{
			"bufferView":4,
			"componentType":5126,
			"count":965,
			"max":[
				2.079730987548828,
				2.0797181129455566,
				1.138832175229254e-07
			],
			"min":[
				-2.079705238342285,
				-2.079719066619873,
				-5.085369110107422
			],
			"type":"VEC3"
		},
		{
			"bufferView":5,
			"componentType":5126,
			"count":965,
			"type":"VEC3"
		},
		{
			"bufferView":6,
			"componentType":5126,
			"count":965,
			"type":"VEC2"
		},
		{
			"bufferView":7,
			"componentType":5123,
			"count":4878,
			"type":"SCALAR"
		},
		{
			"bufferView":8,
			"componentType":5126,
			"count":965,
			"max":[
				2.079710006713867,
				2.0797183513641357,
				7.586052674923849e-08
			],
			"min":[
				-2.079726219177246,
				-2.079718828201294,
				-5.085369110107422
			],
			"type":"VEC3"
		},
		{
			"bufferView":9,
			"componentType":5126,
			"count":965,
			"type":"VEC3"
		},
		{
			"bufferView":10,
			"componentType":5126,
			"count":965,
			"type":"VEC2"
		},
		{
			"bufferView":11,
			"componentType":5123,
			"count":4878,
			"type":"SCALAR"
		},
		{
			"bufferView":12,
			"componentType":5126,
			"count":1151,
			"max":[
				0.7634375095367432,
				9.047201156616211,
				-7.54084587097168
			],
			"min":[
				-0.7634309530258179,
				-0.7634334564208984,
				-19.697998046875
			],
			"type":"VEC3"
		},
		{
			"bufferView":13,
			"componentType":5126,
			"count":1151,
			"type":"VEC3"
		},
		{
			"bufferView":14,
			"componentType":5126,
			"count":1151,
			"type":"VEC2"
		},
		{
			"bufferView":15,
			"componentType":5123,
			"count":6324,
			"type":"SCALAR"
		},
		{
			"bufferView":16,
			"componentType":5126,
			"count":540,
			"max":[
				0.8251510262489319,
				0.9238424301147461,
				0.7227315902709961
			],
			"min":[
				-0.8251509070396423,
				-1.1184892654418945,
				-1.4876880645751953
			],
			"type":"VEC3"
		},
		{
			"bufferView":17,
			"componentType":5126,
			"count":540,
			"type":"VEC3"
		},
		{
			"bufferView":18,
			"componentType":5126,
			"count":540,
			"type":"VEC2"
		},
		{
			"bufferView":19,
			"componentType":5123,
			"count":2778,
			"type":"SCALAR"
		},
		{
			"bufferView":20,
			"componentType":5126,
			"count":1134,
			"max":[
				1.902688980102539,
				1.9026901721954346,
				0.32669973373413086
			],
			"min":[
				-1.902688980102539,
				-1.9026901721954346,
				-1.2681612968444824
			],
			"type":"VEC3"
		},
		{
			"bufferView":21,
			"componentType":5126,
			"count":1134,
			"type":"VEC3"
		},
		{
			"bufferView":22,
			"componentType":5126,
			"count":1134,
			"type":"VEC2"
		},
		{
			"bufferView":23,
			"componentType":5123,
			"count":5400,
			"type":"SCALAR"
		},
		{
			"bufferView":24,
			"componentType":5126,
			"count":1134,
			"max":[
				1.9026899337768555,
				1.9026906490325928,
				0.32670021057128906
			],
			"min":[
				-1.9026894569396973,
				-1.9026901721954346,
				-1.2681608200073242
			],
			"type":"VEC3"
		},
		{
			"bufferView":25,
			"componentType":5126,
			"count":1134,
			"type":"VEC3"
		},
		{
			"bufferView":26,
			"componentType":5126,
			"count":1134,
			"type":"VEC2"
		},
		{
			"bufferView":27,
			"componentType":5123,
			"count":5400,
			"type":"SCALAR"
		}
	],
	"bufferViews":[
		{
			"buffer":0,
			"byteLength":10992,
			"byteOffset":0,
			"target":34962
		},
		{
			"buffer":0,
			"byteLength":10992,
			"byteOffset":10992,
			"target":34962
		},
		{
			"buffer":0,
			"byteLength":7328,
			"byteOffset":21984,
			"target":34962
		},
		{
			"buffer":0,
			"byteLength":9192,
			"byteOffset":29312,
			"target":34963
		},
		{
			"buffer":0,
			"byteLength":11580,
			"byteOffset":38504,
			"target":34962
		},
		{
			"buffer":0,
			"byteLength":11580,
			"byteOffset":50084,
			"target":34962
		},
		{
			"buffer":0,
			"byteLength":7720,
			"byteOffset":61664,
			"target":34962
		},
		{
			"buffer":0,
			"byteLength":9756,
			"byteOffset":69384,
			"target":34963
		},
		{
			"buffer":0,
			"byteLength":11580,
			"byteOffset":79140,
			"target":34962
		},
		{
			"buffer":0,
			"byteLength":11580,
			"byteOffset":90720,
			"target":34962
		},
		{
			"buffer":0,
			"byteLength":7720,
			"byteOffset":102300,
			"target":34962
		},
		{
			"buffer":0,
			"byteLength":9756,
			"byteOffset":110020,
			"target":34963
		},
		{
			"buffer":0,
			"byteLength":13812,
			"byteOffset":119776,
			"target":34962
		},
		{
			"buffer":0,
			"byteLength":13812,
			"byteOffset":133588,
			"target":34962
		},
		{
			"buffer":0,
			"byteLength":9208,
			"byteOffset":147400,
			"target":34962
		},
		{
			"buffer":0,
			"byteLength":12648,
			"byteOffset":156608,
			"target":34963
		},
		{
			"buffer":0,
			"byteLength":6480,
			"byteOffset":169256,
			"target":34962
		},
		{
			"buffer":0,
			"byteLength":6480,
			"byteOffset":175736,
			"target":34962
		},
		{
			"buffer":0,
			"byteLength":4320,
			"byteOffset":182216,
			"target":34962
		},
		{
			"buffer":0,
			"byteLength":5556,
			"byteOffset":186536,
			"target":34963
		},
		{
			"buffer":0,
			"byteLength":13608,
			"byteOffset":192092,
			"target":34962
		},
		{
			"buffer":0,
			"byteLength":13608,
			"byteOffset":205700,
			"target":34962
		},
		{
			"buffer":0,
			"byteLength":9072,
			"byteOffset":219308,
			"target":34962
		},
		{
			"buffer":0,
			"byteLength":10800,
			"byteOffset":228380,
			"target":34963
		},
		{
			"buffer":0,
			"byteLength":13608,
			"byteOffset":239180,
			"target":34962
		},
		{
			"buffer":0,
			"byteLength":13608,
			"byteOffset":252788,
			"target":34962
		},
		{
			"buffer":0,
			"byteLength":9072,
			"byteOffset":266396,
			"target":34962
		},
		{
			"buffer":0,
			"byteLength":10800,
			"byteOffset":275468,
			"target":34963
		}
	],
	"samplers":[
		{
			"magFilter":9729,
			"minFilter":9987
		}
	],
	"buffers":[
		{
			"byteLength":286268,
			"uri":"faucet.bin"
		}
	]
}
