{
	"asset":{
		"generator":"Khronos glTF Blender I/O v3.6.27",
		"version":"2.0"
	},
	"extensionsUsed":[
		"KHR_materials_specular",
		"KHR_materials_ior"
	],
	"scene":0,
	"scenes":[
		{
			"name":"Scene",
			"nodes":[
				0
			]
		}
	],
	"nodes":[
		{
			"mesh":0,
			"name":"Meet_MAT_v9",
			"rotation":[
				0.7071068286895752,
				0,
				0,
				0.7071068286895752
			],
			"scale":[
				0.009999999776482582,
				0.009999999776482582,
				0.009999999776482582
			]
		}
	],
	"materials":[
		{
			"doubleSided":true,
			"extensions":{
				"KHR_materials_specular":{
					"specularColorFactor":[
						2.371357614441398,
						2.371357614441398,
						2.371357614441398
					]
				},
				"KHR_materials_ior":{
					"ior":1.4500000476837158
				}
			},
			"name":"faucetPBR",
			"normalTexture":{
				"index":0
			},
			"pbrMetallicRoughness":{
				"baseColorTexture":{
					"index":1
				},
				"metallicRoughnessTexture":{
					"index":2
				}
			}
		}
	],
	"meshes":[
		{
			"name":"Meet_MAT_v9",
			"primitives":[
				{
					"attributes":{
						"POSITION":0,
						"NORMAL":1,
						"TEXCOORD_0":2
					},
					"indices":3,
					"material":0
				},
				{
					"attributes":{
						"POSITION":4,
						"NORMAL":5,
						"TEXCOORD_0":6
					},
					"indices":7,
					"material":0
				},
				{
					"attributes":{
						"POSITION":8,
						"NORMAL":9,
						"TEXCOORD_0":10
					},
					"indices":11,
					"material":0
				}
			]
		}
	],
	"textures":[
		{
			"sampler":0,
			"source":0
		},
		{
			"sampler":0,
			"source":1
		},
		{
			"sampler":0,
			"source":2
		}
	],
	"images":[
		{
			"mimeType":"image/png",
			"name":"SN_normal",
			"uri":"tex/SN_normal.png"
		},
		{
			"mimeType":"image/png",
			"name":"SN_basecolor",
			"uri":"tex/SN_basecolor.png"
		},
		{
			"mimeType":"image/png",
			"name":"SN_metallic.png-SN_roughness.png",
			"uri":"tex/SN_metallic_png-SN_roughness_png.png"
		}
	],
	"accessors":[
		{
			"bufferView":0,
			"componentType":5126,
			"count":834,
			"max":[
				4.125999927520752,
				4.761499881744385,
				0
			],
			"min":[
				-4.125999927520752,
				-4.761499881744385,
				-1.034000039100647
			],
			"type":"VEC3"
		},
		{
			"bufferView":1,
			"componentType":5126,
			"count":834,
			"type":"VEC3"
		},
		{
			"bufferView":2,
			"componentType":5126,
			"count":834,
			"type":"VEC2"
		},
		{
			"bufferView":3,
			"componentType":5123,
			"count":3000,
			"type":"SCALAR"
		},
		{
			"bufferView":4,
			"componentType":5126,
			"count":21276,
			"max":[
				3.7381999492645264,
				3.403899908065796,
				-6.950099945068359
			],
			"min":[
				-3.7381999492645264,
				-3.2464001178741455,
				-14.426400184631348
			],
			"type":"VEC3"
		},
		{
			"bufferView":5,
			"componentType":5126,
			"count":21276,
			"type":"VEC3"
		},
		{
			"bufferView":6,
			"componentType":5126,
			"count":21276,
			"type":"VEC2"
		},
		{
			"bufferView":7,
			"componentType":5123,
			"count":121110,
			"type":"SCALAR"
		},
		{
			"bufferView":8,
			"componentType":5126,
			"count":19679,
			"max":[
				4.092700004577637,
				1.6224000453948975,
				-1.0292999744415283
			],
			"min":[
				-4.092700004577637,
				-1.6236000061035156,
				-7.56790018081665
			],
			"type":"VEC3"
		},
		{
			"bufferView":9,
			"componentType":5126,
			"count":19679,
			"type":"VEC3"
		},
		{
			"bufferView":10,
			"componentType":5126,
			"count":19679,
			"type":"VEC2"
		},
		{
			"bufferView":11,
			"componentType":5123,
			"count":113136,
			"type":"SCALAR"
		}
	],
	"bufferViews":[
		{
			"buffer":0,
			"byteLength":10008,
			"byteOffset":0,
			"target":34962
		},
		{
			"buffer":0,
			"byteLength":10008,
			"byteOffset":10008,
			"target":34962
		},
		{
			"buffer":0,
			"byteLength":6672,
			"byteOffset":20016,
			"target":34962
		},
		{
			"buffer":0,
			"byteLength":6000,
			"byteOffset":26688,
			"target":34963
		},
		{
			"buffer":0,
			"byteLength":255312,
			"byteOffset":32688,
			"target":34962
		},
		{
			"buffer":0,
			"byteLength":255312,
			"byteOffset":288000,
			"target":34962
		},
		{
			"buffer":0,
			"byteLength":170208,
			"byteOffset":543312,
			"target":34962
		},
		{
			"buffer":0,
			"byteLength":242220,
			"byteOffset":713520,
			"target":34963
		},
		{
			"buffer":0,
			"byteLength":236148,
			"byteOffset":955740,
			"target":34962
		},
		{
			"buffer":0,
			"byteLength":236148,
			"byteOffset":1191888,
			"target":34962
		},
		{
			"buffer":0,
			"byteLength":157432,
			"byteOffset":1428036,
			"target":34962
		},
		{
			"buffer":0,
			"byteLength":226272,
			"byteOffset":1585468,
			"target":34963
		}
	],
	"samplers":[
		{
			"magFilter":9729,
			"minFilter":9987
		}
	],
	"buffers":[
		{
			"byteLength":1811740,
			"uri":"matt.bin"
		}
	]
}
