{
	"asset":{
		"generator":"Khronos glTF Blender I/O v3.6.27",
		"version":"2.0"
	},
	"extensionsUsed":[
		"KHR_materials_specular",
		"KHR_materials_ior"
	],
	"scene":0,
	"scenes":[
		{
			"name":"Scene",
			"nodes":[
				0
			]
		}
	],
	"nodes":[
		{
			"mesh":0,
			"name":"3D_coat_ball",
			"rotation":[
				0.7071068286895752,
				0,
				0,
				0.7071068286895752
			],
			"scale":[
				0.009999999776482582,
				0.009999999776482582,
				0.009999999776482582
			]
		}
	],
	"materials":[
		{
			"doubleSided":true,
			"extensions":{
				"KHR_materials_specular":{
					"specularColorFactor":[
						2.371357614441398,
						2.371357614441398,
						2.371357614441398
					]
				},
				"KHR_materials_ior":{
					"ior":1.4500000476837158
				}
			},
			"name":"faucetPBR",
			"normalTexture":{
				"index":0
			},
			"pbrMetallicRoughness":{
				"baseColorTexture":{
					"index":1
				},
				"metallicRoughnessTexture":{
					"index":2
				}
			}
		}
	],
	"meshes":[
		{
			"name":"3D_coat_ball",
			"primitives":[
				{
					"attributes":{
						"POSITION":0,
						"NORMAL":1,
						"TEXCOORD_0":2
					},
					"indices":3,
					"material":0
				}
			]
		}
	],
	"textures":[
		{
			"sampler":0,
			"source":0
		},
		{
			"sampler":0,
			"source":1
		},
		{
			"sampler":0,
			"source":2
		}
	],
	"images":[
		{
			"mimeType":"image/png",
			"name":"SN_normal",
			"uri":"tex/SN_normal.png"
		},
		{
			"mimeType":"image/png",
			"name":"SN_basecolor",
			"uri":"tex/SN_basecolor.png"
		},
		{
			"mimeType":"image/png",
			"name":"SN_metallic.png-SN_roughness.png",
			"uri":"tex/SN_metallic_png-SN_roughness_png.png"
		}
	],
	"accessors":[
		{
			"bufferView":0,
			"componentType":5126,
			"count":36013,
			"max":[
				5.892685890197754,
				5.63903284072876,
				7.715353012084961
			],
			"min":[
				-5.892704010009766,
				-5.971062183380127,
				-5.887664794921875
			],
			"type":"VEC3"
		},
		{
			"bufferView":1,
			"componentType":5126,
			"count":36013,
			"type":"VEC3"
		},
		{
			"bufferView":2,
			"componentType":5126,
			"count":36013,
			"type":"VEC2"
		},
		{
			"bufferView":3,
			"componentType":5123,
			"count":140448,
			"type":"SCALAR"
		}
	],
	"bufferViews":[
		{
			"buffer":0,
			"byteLength":432156,
			"byteOffset":0,
			"target":34962
		},
		{
			"buffer":0,
			"byteLength":432156,
			"byteOffset":432156,
			"target":34962
		},
		{
			"buffer":0,
			"byteLength":288104,
			"byteOffset":864312,
			"target":34962
		},
		{
			"buffer":0,
			"byteLength":280896,
			"byteOffset":1152416,
			"target":34963
		}
	],
	"samplers":[
		{
			"magFilter":9729,
			"minFilter":9987
		}
	],
	"buffers":[
		{
			"byteLength":1433312,
			"uri":"orb.bin"
		}
	]
}
